<svg width="454" height="438" fill="none" xmlns="http://www.w3.org/2000/svg"><path fill-rule="evenodd" clip-rule="evenodd" d="M141.022 47.033L98.692.12 351.022 0a19.999 19.999 0 0114.856 6.6l42.452 47.035h-60.019L285.159 210.03c-3.19 7.862-5.714 11.029-15.645 13.166h-47.478l.036-.036 68.612-169.525h-41.789L185.743 210.03c-3.19 7.862-5.714 11.029-15.645 13.166H122.62l.037-.036 68.611-169.525h-35.397a20.001 20.001 0 01-14.849-6.602zM39.246 360.207c-24.145 0-38.408-18.081-38.408-40.317s14.263-40.205 38.408-40.205c24.145 0 38.408 17.969 38.408 40.205 0 22.236-14.263 40.317-38.408 40.317zm0-63.676c-13.589 0-20.776 10.107-20.776 23.359 0 13.364 7.187 23.471 20.776 23.471 13.476 0 20.776-10.107 20.776-23.471 0-13.252-7.3-23.359-20.776-23.359zm65.708 37.172v25.493h-17.07v-78.613h37.397c31.895 0 31.895 53.12 0 53.12h-20.327zm16.846-14.824c12.802 0 12.802-23.584 0-23.584h-16.846v23.584H121.8zm54.342 40.317v-64.013H152.67v-14.6h64.013v14.6h-23.471v64.013h-17.07zm65.244.112h-17.07v-78.725h17.07v78.725zm30.598-44.135v44.135h-17.07v-78.725h17.07v.225l.225-.225 25.268 51.099 25.156-51.099.337.225v-.225h17.07v78.725h-17.07v-44.135l-21.338 44.135h-8.31v-.112l-21.338-44.023zm96.349 36.05l-2.92 7.973h-18.418l31.108-78.613h19.766l31.108 78.613h-18.305l-3.033-7.973c-6.513-4.38-13.139-6.514-19.653-6.514-6.513 0-13.027 2.134-19.653 6.514zm19.653-52.896l-13.139 35.488c4.379-1.909 8.759-2.807 13.139-2.807 4.38 0 8.872.898 13.252 2.807l-13.252-35.488zm65.176 60.981h-17.07v-78.725h17.07v78.725zM62.086 437.169v-48.95H65.7l28.252 40.531v-40.531h4.271v48.95H94.61l-28.252-40.602v40.602h-4.27zm76.828.788c-3.285 0-6.242-.788-8.87-2.365-2.628-1.621-4.709-3.811-6.242-6.57-1.533-2.804-2.3-5.936-2.3-9.396 0-3.461.745-6.549 2.234-9.264 1.49-2.76 3.504-4.928 6.045-6.505s5.388-2.365 8.541-2.365c2.41 0 4.578.438 6.505 1.314a14.626 14.626 0 015.059 3.679 15.506 15.506 0 013.286 5.322 16.659 16.659 0 011.116 7.622c-.043.482-.109.985-.197 1.511h-28.512c.086 2.341.633 4.443 1.64 6.308 1.182 2.19 2.803 3.92 4.862 5.19 2.058 1.227 4.336 1.84 6.833 1.84 2.54 0 4.752-.592 6.636-1.774 1.883-1.227 3.416-2.847 4.599-4.862l3.351 1.774c-.788 1.62-1.905 3.088-3.351 4.402-1.445 1.27-3.132 2.278-5.059 3.022-1.884.745-3.942 1.117-6.176 1.117zm-11.761-25.756c-.812 1.531-1.312 3.239-1.501 5.125h24.512c.023-1.992-.376-3.81-1.198-5.453-1.007-2.059-2.452-3.68-4.336-4.862-1.84-1.227-3.942-1.84-6.308-1.84-2.365 0-4.533.635-6.504 1.905-1.971 1.227-3.526 2.935-4.665 5.125zm62.425 25.362c-2.891 0-5.125-.81-6.702-2.431-1.577-1.665-2.366-4.074-2.366-7.227v-21.88h-6.57v-3.745h2.497c1.314 0 2.321-.394 3.022-1.183.701-.788 1.051-1.861 1.051-3.219v-3.745h3.943v8.147h7.621v3.745h-7.621v21.88c0 .963.131 1.905.394 2.825.306.92.876 1.664 1.708 2.234.832.569 2.037.854 3.614.854.35 0 .766-.022 1.248-.066.526-.044.942-.087 1.249-.131v3.548a8.653 8.653 0 01-1.643.263c-.613.087-1.095.131-1.445.131zm33.297-.394l-11.958-34.889h4.403l9.55 28.892 8.65-28.892h4.007l8.653 28.901 9.613-28.901h4.402l-12.024 34.889h-4.008l-8.64-28.842-8.64 28.842h-4.008zm72.566.788c-3.329 0-6.329-.788-9.001-2.365-2.672-1.577-4.797-3.745-6.374-6.505-1.533-2.803-2.299-5.935-2.299-9.395 0-3.461.766-6.571 2.299-9.33 1.577-2.76 3.68-4.928 6.308-6.505 2.672-1.577 5.694-2.365 9.067-2.365 3.329 0 6.33.788 9.002 2.365 2.672 1.577 4.774 3.745 6.307 6.505 1.533 2.715 2.3 5.825 2.3 9.33 0 3.504-.789 6.636-2.366 9.395-1.576 2.76-3.701 4.928-6.373 6.505-2.628 1.577-5.585 2.365-8.87 2.365zm0-3.876c2.497 0 4.753-.614 6.768-1.84 2.058-1.27 3.679-3 4.862-5.191 1.182-2.19 1.774-4.643 1.774-7.358 0-2.716-.592-5.147-1.774-7.294-1.183-2.146-2.782-3.854-4.797-5.124-2.015-1.271-4.292-1.906-6.833-1.906-2.54 0-4.84.635-6.899 1.906-2.015 1.226-3.613 2.934-4.796 5.124-1.183 2.147-1.774 4.578-1.774 7.294 0 2.715.591 5.168 1.774 7.358 1.226 2.191 2.847 3.921 4.862 5.191 2.015 1.226 4.293 1.84 6.833 1.84zm40.223 3.088V402.28h3.942v4.4c.75-1.271 1.78-2.322 3.088-3.152 1.84-1.138 4.008-1.708 6.505-1.708h2.234v3.942h-2.694c-2.847 0-5.081.92-6.702 2.76-1.621 1.796-2.431 4.227-2.431 7.293v21.354h-3.942zm35.405 0v-49.738h3.943v33.325l18.594-18.476h5.387l-14.06 14.061 15.374 20.828h-4.927l-13.419-18.013-6.949 7.142v10.871h-3.943z" fill="#fff"/></svg>