<svg width="126" height="32" fill="none" xmlns="http://www.w3.org/2000/svg"><path fill-rule="evenodd" clip-rule="evenodd" d="M0 .617l5.197 5.76a4.777 4.777 0 003.547 1.577h3.948l-9.407 23.24-.004.005h6.508c1.362-.293 1.708-.727 2.145-1.805l8.658-21.44h5.729l-9.407 23.24-.005.005h6.51c1.36-.293 1.707-.727 2.144-1.805l8.658-21.44h8.228l-5.213-5.776A4.777 4.777 0 0033.687.6L0 .617z" fill="#fff"/><path d="M46.608 30.8v-8.387h.619l5.077 7.284h-.237v-7.284h.732V30.8h-.62L47.08 23.47h.26V30.8h-.732zm13.163.135c-.563 0-1.07-.135-1.52-.405a3.022 3.022 0 01-1.07-1.126 3.3 3.3 0 01-.394-1.61c0-.593.128-1.122.383-1.587.255-.473.6-.844 1.036-1.114.435-.27.923-.406 1.463-.406.413 0 .785.075 1.115.225.337.15.626.36.867.63.247.263.435.567.562.913a2.852 2.852 0 01.158 1.564h-5.19V27.4h4.807l-.304.237a2.087 2.087 0 00-.191-1.171 2 2 0 00-.743-.833 1.903 1.903 0 00-1.08-.315c-.406 0-.778.108-1.115.326a2.21 2.21 0 00-.8.878c-.195.368-.285.796-.27 1.283-.015.488.08.92.282 1.295.202.375.48.672.833.89.352.21.743.315 1.17.315.436 0 .815-.102 1.137-.304.323-.21.586-.488.789-.834l.574.304c-.136.278-.327.53-.575.755-.247.217-.536.39-.866.518a2.853 2.853 0 01-1.058.19zm8.68-.068c-.495 0-.878-.139-1.148-.416-.27-.285-.406-.698-.406-1.238v-3.749h-1.125v-.642h.427c.225 0 .398-.067.518-.202s.18-.32.18-.552v-.642h.676v1.396h1.306v.642h-1.306v3.749c0 .165.022.326.067.484.053.157.15.285.293.382.142.098.349.147.62.147a3.876 3.876 0 00.428-.034v.608a1.475 1.475 0 01-.283.045 1.862 1.862 0 01-.247.022zm5.705-.067l-2.05-5.978h.755l1.79 5.415h-.293l1.621-5.415h.687l1.621 5.415h-.293l1.802-5.415h.754L78.49 30.8h-.687l-1.565-5.224h.17L74.841 30.8h-.686zm12.432.135c-.57 0-1.084-.135-1.542-.405a2.992 2.992 0 01-1.092-1.115 3.299 3.299 0 01-.394-1.61c0-.592.132-1.125.394-1.598a3.02 3.02 0 011.08-1.114c.459-.27.976-.406 1.554-.406.57 0 1.085.135 1.543.405.457.27.818.642 1.08 1.115.263.465.394.998.394 1.598 0 .6-.135 1.137-.405 1.61-.27.473-.634.845-1.092 1.115-.45.27-.957.405-1.52.405zm0-.664c.428 0 .815-.105 1.16-.316.353-.217.63-.513.833-.889a2.61 2.61 0 00.304-1.26c0-.466-.102-.882-.304-1.25a2.371 2.371 0 00-.822-.878 2.148 2.148 0 00-1.17-.327c-.436 0-.83.11-1.183.327-.345.21-.619.503-.821.878a2.546 2.546 0 00-.304 1.25c0 .465.101.885.304 1.26.21.376.488.672.833.89.345.21.735.315 1.17.315zm6.892.529v-5.978h.675v1.115l-.124-.102c.128-.337.345-.604.653-.799.315-.195.687-.293 1.115-.293h.382v.676h-.461c-.488 0-.87.157-1.148.473-.278.307-.417.724-.417 1.25V30.8h-.675zm6.066 0v-8.522h.675v6.09l-.349-.034 3.535-3.512h.923l-2.409 2.41 2.634 3.568h-.844l-2.499-3.355.45.011-1.621 1.666.18-.461V30.8h-.675zM53.177 18.173c-4.137 0-6.58-3.098-6.58-6.907 0-3.81 2.443-6.889 6.58-6.889 4.137 0 6.58 3.079 6.58 6.889s-2.443 6.907-6.58 6.907zm0-10.91c-2.328 0-3.56 1.732-3.56 4.003 0 2.29 1.232 4.021 3.56 4.021 2.309 0 3.56-1.732 3.56-4.021 0-2.27-1.251-4.002-3.56-4.002zm11.258 6.37V18H61.51V4.531h6.407c5.465 0 5.465 9.101 0 9.101h-3.482zm2.886-2.54c2.193 0 2.193-4.041 0-4.041h-2.886v4.04h2.886zM76.63 18V7.033H72.61V4.53h10.967v2.502h-4.021V18H76.63zm11.178.02h-2.924V4.53h2.924V18.02zm5.243-7.563v7.562h-2.925V4.531h2.925v.039l.038-.039 4.33 8.755 4.31-8.755.057.039V4.53h2.925V18.02h-2.925v-7.561l-3.656 7.561h-1.423V18l-3.656-7.543zm16.507 6.177l-.5 1.366h-3.155l5.329-13.469h3.387L119.949 18h-3.136l-.519-1.366c-1.116-.75-2.252-1.116-3.367-1.116-1.116 0-2.232.365-3.368 1.116zm3.368-9.063l-2.252 6.08a5.583 5.583 0 012.252-.48c.75 0 1.52.153 2.27.48l-2.27-6.08zm11.166 10.448h-2.925V4.531h2.925V18.02z" fill="#fff"/></svg>