<svg width="48" height="49" fill="none" xmlns="http://www.w3.org/2000/svg"><g fill="#fff"><path d="M41.25 21.228a.75.75 0 00-.53.22l-2.25 2.25 1.06 1.06 2.03-2.03h4.94v-1.5h-5.25zM46.5 24.228H42v1.5h4.5v-1.5zM46.5 27.228H42v1.5h4.5v-1.5zM8.47 24.759l1.06-1.06-2.25-2.25a.75.75 0 00-.53-.22H1.5v1.5h4.94l2.03 2.03zM6 24.228H1.5v1.5H6v-1.5zM6 27.228H1.5v1.5H6v-1.5z"/><path d="M37.658 31.103c6.358 8.175 7.988 13.17 6.812 14.345-.569.567-2.03.422-4.03-.375a3 3 0 00-5.067-2.707 65.79 65.79 0 01-4.257-2.973c3.05-.54 5.634-1.515 5.634-3.165V22.365a86.644 86.644 0 004.436-5.763c.264.08.538.122.814.126a2.986 2.986 0 002.233-4.983c2.237-4.131 2.674-6.92 1.297-8.297C42.481.4 33.172 7.038 29.038 10.266A46.232 46.232 0 0024 9.978c-4.41 0-12.75.784-12.75 3.75V20C4.717 11.842 2.19 5.853 3.53 4.51c.567-.569 2.03-.424 4.03.375a3 3 0 005.066 2.708c.862.548 1.76 1.153 2.688 1.815l.872-1.22a62.515 62.515 0 00-2.811-1.898c.079-.263.121-.536.125-.81a2.986 2.986 0 00-5.27-1.94c-2.755-1.12-4.695-1.158-5.76-.09-2.643 2.641 1.914 10.654 8.78 18.904v5.236a89.431 89.431 0 00-4.01 5.168 2.987 2.987 0 00-3.204 4.971c-2.461 4.396-2.995 7.35-1.566 8.78a2.906 2.906 0 002.142.762c3.21 0 8.585-3.098 14.33-7.581 1.68.189 3.368.285 5.058.29 1.684-.005 3.366-.1 5.04-.288 1.955 1.526 3.842 2.87 5.585 3.975-.08.264-.121.537-.125.812a2.987 2.987 0 005.27 1.94 9.958 9.958 0 003.586.871 2.942 2.942 0 002.175-.78c3.049-3.05-3.661-12.434-6.688-16.327l-1.185.92zM10.5 3.978a1.5 1.5 0 110 3 1.5 1.5 0 010-3zm24.75 24.75c0 .48-2.13 1.465-6.15 1.957l.304-.3a124.401 124.401 0 005.846-6.26v4.603zm-22.5 1.906c2.603 1.416 7.995 1.844 11.25 1.844.341 0 .709-.005 1.092-.015a106.299 106.299 0 01-6.581 5.671c-3.766-.505-5.761-1.442-5.761-1.906v-5.594zm11.25.344c-.975 0-1.884-.03-2.738-.08a120.134 120.134 0 01-6.782-7.065c3.11.795 6.31 1.18 9.52 1.145 3.207.035 6.406-.35 9.514-1.143a124.785 124.785 0 01-6.774 7.063c-.854.05-1.765.08-2.74.08zM12.75 15.633c2.3 1.263 6.91 1.845 11.25 1.845 4.317 0 8.944-.58 11.25-1.844v5.594c0 .654-3.942 2.25-11.25 2.25s-11.25-1.596-11.25-2.25v-5.595zM42 15.228a1.5 1.5 0 110-2.999 1.5 1.5 0 010 3zm2.47-10.72c.627.628.525 2.634-1.491 6.398a2.968 2.968 0 00-.979-.178 3 3 0 00-2.12 5.121 81.233 81.233 0 01-3.13 4.148v-6.269c0-1.65-2.584-2.625-5.636-3.165C38.7 4.837 43.331 3.37 44.47 4.51zM24 11.479c7.308 0 11.25 1.597 11.25 2.25v.048l-.014-.006c-.466.926-4.63 2.208-11.236 2.208-6.62 0-10.849-1.313-11.241-2.221h-.009v-.029c0-.653 3.942-2.25 11.25-2.25zm-5.405 18.906c.103.102.205.2.308.3-4.02-.49-6.153-1.476-6.153-1.956v-4.614a124.175 124.175 0 005.845 6.27zM6 33.978a1.5 1.5 0 110 3 1.5 1.5 0 010-3zm-2.47 11.47c-.661-.661-.505-2.86 1.844-7.038A3 3 0 009 35.478a2.97 2.97 0 00-.595-1.774 84.91 84.91 0 012.845-3.75v6.274c0 1.65 2.579 2.625 5.625 3.164-7.05 5.29-12.125 7.276-13.345 6.056zM24 38.478c-1.227 0-2.35-.048-3.385-.126a116.89 116.89 0 006.781-6.006c2.861-.216 6.036-.723 7.854-1.712v5.594c0 .464-1.995 1.4-5.76 1.906a104.2 104.2 0 01-3.007-2.475l-.975 1.14c.624.534 1.245 1.05 1.863 1.554-1.032.077-2.15.125-3.371.125zm13.5 7.5a1.5 1.5 0 110-2.999 1.5 1.5 0 010 3z"/></g></svg>