<svg width="48" height="48" fill="none" xmlns="http://www.w3.org/2000/svg"><g clip-path="url(#prefix__clip0_2282_3252)" fill="#fff"><path d="M45 21.75c-.978 0-1.811.627-2.121 1.5H38.25V19.5h5.25a.75.75 0 000-1.5h-5.25v-3.75H42a.75.75 0 000-1.5h-3.825a3.761 3.761 0 00-2.925-2.925V6a.75.75 0 00-1.5 0v3.75H30V4.5a.75.75 0 00-1.5 0v5.25h-3.75V5.121A2.254 2.254 0 0026.25 3c0-1.24-1.01-2.25-2.25-2.25S21.75 1.76 21.75 3c0 .978.627 1.811 1.5 2.121V9.75H19.5V4.5a.75.75 0 00-1.5 0v5.25h-3.75V6a.75.75 0 00-1.5 0v3.825a3.761 3.761 0 00-2.925 2.925H6a.75.75 0 000 1.5h3.75V18H4.5a.75.75 0 000 1.5h5.25v3.75H5.121A2.254 2.254 0 003 21.75C1.76 21.75.75 22.76.75 24S1.76 26.25 3 26.25c.978 0 1.811-.627 2.121-1.5H9.75v3.75H4.5a.75.75 0 000 1.5h5.25v3.75H6a.75.75 0 000 1.5h3.825a3.761 3.761 0 002.925 2.925V42a.75.75 0 001.5 0v-3.75H18v5.25a.75.75 0 001.5 0v-5.25h3.75v4.629A2.254 2.254 0 0021.75 45c0 1.24 1.01 2.25 2.25 2.25s2.25-1.01 2.25-2.25c0-.978-.627-1.811-1.5-2.121V38.25h3.75v5.25a.75.75 0 001.5 0v-5.25h3.75V42a.75.75 0 001.5 0v-3.825a3.761 3.761 0 002.925-2.925H42a.75.75 0 000-1.5h-3.75V30h5.25a.75.75 0 000-1.5h-5.25v-3.75h4.629c.31.873 1.143 1.5 2.121 1.5 1.24 0 2.25-1.01 2.25-2.25s-1.01-2.25-2.25-2.25zM24 2.25a.75.75 0 010 1.5.75.75 0 010-1.5zM3 24.75a.75.75 0 010-1.5.75.75 0 010 1.5zm21 21a.75.75 0 010-1.5.75.75 0 010 1.5zm-10.5-34.5h21c1.24 0 2.25 1.01 2.25 2.25v8.69l-.97-.97a.75.75 0 00-.53-.22h-2.346a13.183 13.183 0 00-.53-1.241c-.89-1.808-2.062-3.076-3.336-3.618a2.99 2.99 0 00-2.788-1.891c-.895 0-1.7.394-2.25 1.018a2.994 2.994 0 00-2.25-1.018 2.99 2.99 0 00-2.788 1.89c-1.274.543-2.447 1.81-3.336 3.619-.874 1.779-1.376 3.871-1.376 5.741h-1.19l-1.81-1.81V13.5c0-1.24 1.01-2.25 2.25-2.25zM30.621 21a2.254 2.254 0 00-2.121-1.5c-1.24 0-2.25 1.01-2.25 2.25S27.26 24 28.5 24c.978 0 1.811-.627 2.121-1.5h1.187c.283 1.013.442 2.054.442 3v.002A3.73 3.73 0 0030 24.75a.75.75 0 000 1.5c.951 0 1.767.593 2.095 1.43l.01.025c.094.247.145.515.145.795a2.238 2.238 0 01-1.74 2.191.75.75 0 00-.353.193c-.64.622-3.47 1.366-4.282 1.366-.62 0-1.125-.505-1.125-1.125v-.779c.442.256.954.404 1.5.404a.75.75 0 000-1.5c-.827 0-1.5-.673-1.5-1.5v-10.5c0-.827.673-1.5 1.5-1.5.695 0 1.294.47 1.457 1.145a.75.75 0 00.509.54c1.246.383 2.338 1.823 3.07 3.565h-.665zm-1.371.75a.75.75 0 01-1.5 0 .75.75 0 011.5 0zm-13.316 5.518a7.951 7.951 0 01-.052-.268h1.497c.31.873 1.143 1.5 2.121 1.5 1.24 0 2.25-1.01 2.25-2.25S20.74 24 19.5 24c-.978 0-1.811.627-2.121 1.5H15.75c0-3.157 1.762-7.367 4.034-8.065a.75.75 0 00.509-.54 1.495 1.495 0 011.457-1.145c.827 0 1.5.673 1.5 1.5V18c0 .827-.673 1.5-1.5 1.5a.75.75 0 000 1.5 2.98 2.98 0 001.5-.404v10.529c0 .62-.505 1.125-1.125 1.125-.813 0-3.642-.744-4.282-1.366a.75.75 0 00-.353-.193 2.238 2.238 0 01-1.74-2.191c0-.277.05-.55.15-.808a.751.751 0 00.034-.424zm2.816-1.018a.75.75 0 011.5 0 .75.75 0 01-1.5 0zm15.75 10.5h-21c-1.24 0-2.25-1.01-2.25-2.25v-8.69l.97.97c.14.141.331.22.53.22h1.612c.019.124.04.247.062.37a3.731 3.731 0 00-.174 1.13 3.73 3.73 0 002.712 3.604c1.188.943 4.2 1.646 5.163 1.646.734 0 1.398-.303 1.875-.79.477.487 1.141.79 1.875.79.963 0 3.975-.703 5.163-1.647A3.73 3.73 0 0033.75 28.5c0-.394-.061-.774-.174-1.131.115-.613.174-1.24.174-1.869 0-.965-.135-1.99-.385-3h1.574l1.811 1.81V34.5c0 1.24-1.01 2.25-2.25 2.25zm10.5-12a.75.75 0 010-1.5.75.75 0 010 1.5z"/><path d="M30 29.25a.75.75 0 000-1.5c-1.24 0-2.25-1.01-2.25-2.25a.75.75 0 00-1.5 0A3.754 3.754 0 0030 29.25z"/></g><defs><clipPath id="prefix__clip0_2282_3252"><path fill="#fff" d="M0 0h48v48H0z"/></clipPath></defs></svg>