<svg width="48" height="48" fill="none" xmlns="http://www.w3.org/2000/svg"><g clip-path="url(#prefix__clip0_2284_3280)"><path d="M46.141 33.12a.708.708 0 00.037-.088c2.843-6.564 2.335-14.61-1.358-20.761 1.971-2.357-.59-5.733-3.391-4.427a23.217 23.217 0 00-1.545-1.44c1.052-2.859-2.457-5.203-4.642-3.068C28.892.13 20.992.17 14.677 3.445c-2.247-2.381-6.02.172-4.66 3.159a23.209 23.209 0 00-2.196 2.195c-.587.672.476 1.593 1.06.926a21.799 21.799 0 012.041-2.043c1.4 1.01 3.43.495 4.198-1.046a30.623 30.623 0 017.21 3.12 2.896 2.896 0 00.212 2.07 32.365 32.365 0 00-4.98 5.405c-1.34-.405-2.817.273-3.4 1.542-2.955.015-5.919.333-8.83.948a2.868 2.868 0 00-1.118-1.141 21.539 21.539 0 012.58-6.036c.464-.748-.71-1.525-1.195-.744a22.94 22.94 0 00-2.745 6.418c-3.37.057-3.935 4.719-.727 5.616-.047 6.635 2.821 13.086 7.796 17.48-1.038 2.803 2.331 5.115 4.554 3.138 6.489 3.45 14.69 3.451 21.178.002 2.261 2.236 5.883-.263 4.61-3.186a23.037 23.037 0 005.876-8.148zm-.886-1.573a44.132 44.132 0 00-6.354-5.23 2.883 2.883 0 00-.712-2.899 43.958 43.958 0 004.472-10.154c.353 0 .691-.064 1.003-.182 3.24 5.471 3.832 12.526 1.59 18.465zm-32.37 7.952a30.858 30.858 0 013.017-16.812c1.598.498 3.324-.552 3.634-2.192a42.116 42.116 0 0113.906 4.24 2.89 2.89 0 00.466 2.405 42.465 42.465 0 01-18.93 13.672 2.843 2.843 0 00-2.094-1.313zm21.874-14.051c0-.797.644-1.446 1.435-1.446 1.904.08 1.904 2.813 0 2.892a1.442 1.442 0 01-1.435-1.446zm9.344-15.037c0 .797-.644 1.446-1.436 1.446-1.903-.08-1.903-2.813 0-2.892.792 0 1.436.649 1.436 1.446zm-3.749-1.654c-.972 1.366-.521 3.341.945 4.153a42.556 42.556 0 01-4.323 9.796 2.888 2.888 0 00-1.212-.078 32.628 32.628 0 00-8.172-10.802 2.893 2.893 0 00.213-2.07 30.622 30.622 0 016.932-3.039c.808 1.561 2.978 2.002 4.325.834.446.384.878.787 1.292 1.206zM23.632 10.52c0-.797.644-1.446 1.435-1.446 1.904.08 1.903 2.813 0 2.892a1.442 1.442 0 01-1.435-1.446zm13.606-6.601c.792 0 1.435.648 1.435 1.445-.078 1.918-2.791 1.918-2.87 0 0-.797.644-1.445 1.435-1.445zM12.576 6.81a1.442 1.442 0 01-1.435-1.446c.08-1.917 2.792-1.917 2.87 0 0 .798-.643 1.446-1.435 1.446zm2.84-1.553a2.857 2.857 0 00-.079-.57c5.889-3.045 13.245-3.098 19.18-.14a2.85 2.85 0 00-.12.803 32.031 32.031 0 00-7.291 3.185c-1.099-1.136-2.979-1.136-4.077 0a32.037 32.037 0 00-7.613-3.278zm8.057 7.623c.951.65 2.237.65 3.188 0a31.213 31.213 0 017.809 10.303 2.872 2.872 0 00-.35.318 43.518 43.518 0 00-14.678-4.435 2.856 2.856 0 00-.672-1.102 30.947 30.947 0 014.703-5.084zm-6.729 5.637c.792 0 1.436.648 1.436 1.445-.08 1.918-2.792 1.918-2.87 0 0-.797.643-1.445 1.434-1.445zM1.394 21.07c0-.798.643-1.446 1.435-1.446 1.904.08 1.903 2.812 0 2.891a1.442 1.442 0 01-1.435-1.445zm2.14 2.763s2.136-.466 2.136-2.745c0 0 5.483-.876 8.242-.907.051.681.342 1.296.789 1.76A32.262 32.262 0 0011.49 39.7c-.275.114-.527.27-.75.46-4.59-4.111-7.207-11-7.207-16.326zm9.042 19.947a1.442 1.442 0 01-1.435-1.446c0-.797.644-1.446 1.435-1.446.781 0 1.436.677 1.436 1.446 0 .797-.644 1.446-1.436 1.446zm12.491 1.864c-3.414 0-6.79-.818-9.808-2.37.123-.351.177-.751.153-1.124a43.866 43.866 0 0019.583-14.117c.42.197.887.288 1.35.263.312 1.16.559 2.344.734 3.527.134.906 1.526.703 1.392-.206a32.468 32.468 0 00-.783-3.744c.168-.104.324-.226.467-.363a42.71 42.71 0 016.518 5.448 21.633 21.633 0 01-5.293 7.213 2.84 2.84 0 00-.744-.401c.138-1.308.198-2.628.178-3.934-.014-.92-1.421-.898-1.407.022a31.28 31.28 0 01-.172 3.781c-1.66.264-2.744 1.984-2.287 3.597a21.48 21.48 0 01-9.88 2.408zm12.614-1.742a1.442 1.442 0 01-1.435-1.446c.08-1.918 2.792-1.917 2.87 0 0 .797-.643 1.446-1.435 1.446z" fill="#fff"/></g><defs><clipPath id="prefix__clip0_2284_3280"><path fill="#fff" d="M0 0h48v48H0z"/></clipPath></defs></svg>