<svg width="48" height="48" fill="none" xmlns="http://www.w3.org/2000/svg"><g clip-path="url(#prefix__clip0_2284_3276)"><path d="M46.36 42.844h-.241l.012-25.068c0-.563-.218-1.093-.617-1.491a2.095 2.095 0 00-1.491-.62l-5.541-.002v-.113a.713.713 0 00-.201-.492l-2.986-3.05a1.2 1.2 0 00-.853-.358h-2.037v-1.103a.77.77 0 01.227-.549l1.541-1.54c.381.215.82.34 1.29.34a2.626 2.626 0 002.623-2.624 2.626 2.626 0 00-2.624-2.624 2.626 2.626 0 00-2.623 2.624c0 .468.124.908.34 1.29l-1.541 1.54c-.412.412-.64.96-.64 1.543v1.103h-3.016V4.57a2.343 2.343 0 001.636-2.231c0-1.29-1.05-2.339-2.34-2.339a2.341 2.341 0 00-2.338 2.339c0 1.045.688 1.932 1.636 2.23v7.08h-5.067V4.57a2.343 2.343 0 001.636-2.23c0-1.29-1.049-2.339-2.339-2.339a2.342 2.342 0 00-2.338 2.339c0 1.045.688 1.932 1.635 2.23v7.08h-3.017v-1.102c0-.583-.227-1.131-.639-1.543l-1.54-1.541c.216-.381.34-.82.34-1.29a2.626 2.626 0 00-2.624-2.623A2.626 2.626 0 0010 6.174a2.626 2.626 0 002.623 2.623c.468 0 .908-.124 1.29-.34l1.54 1.541a.771.771 0 01.227.549v1.103h-2.022c-.316 0-.614.123-.84.345l-3.09 3.055a.704.704 0 00-.21.5v.1l-5.527-.003a2.114 2.114 0 00-2.11 2.109l-.003 5.793a.703.703 0 001.406 0l.003-5.792c0-.388.316-.704.704-.704l5.527.003v5.378c0 1.437.882 2.672 2.133 3.194v10.739h-.96c-.647 0-1.173.525-1.173 1.171v2.4c0 .646.526 1.171 1.172 1.171h2.214a.703.703 0 100-1.406h-1.98v-1.93h26.151v1.93h-20.89a.703.703 0 100 1.406H37.31c.646 0 1.172-.525 1.172-1.172v-2.399c0-.646-.526-1.171-1.172-1.171h-.9V25.6a3.463 3.463 0 002.071-3.167v-5.365l5.541.003c.188 0 .364.073.497.206a.696.696 0 01.205.497l-.011 25.069H3.274l.007-16.013a.703.703 0 10-1.406 0l-.007 16.013H1.64c-.438 0-.85.17-1.16.48-.31.31-.481.722-.481 1.16A3.52 3.52 0 003.516 48H35.15a.703.703 0 100-1.406H3.516a2.112 2.112 0 01-2.11-2.11.234.234 0 01.235-.234h44.718c.13 0 .235.105.235.234 0 .563-.22 1.093-.618 1.492a2.095 2.095 0 01-1.492.618h-6.052a.703.703 0 100 1.406h6.052c.94 0 1.822-.366 2.486-1.03A3.493 3.493 0 0048 44.484c0-.904-.736-1.64-1.64-1.64zM35.461 4.957c.671 0 1.217.546 1.217 1.217s-.546 1.217-1.217 1.217a1.219 1.219 0 01-1.217-1.217c0-.671.546-1.217 1.217-1.217zm-8.183-3.55a.934.934 0 010 1.865.934.934 0 010-1.866zm-6.473 0a.934.934 0 010 1.865.934.934 0 010-1.866zm-9.4 4.767c0-.671.546-1.217 1.217-1.217s1.217.546 1.217 1.217-.546 1.217-1.217 1.217a1.219 1.219 0 01-1.217-1.217zm2.34 6.882h20.606l1.754 1.791h-5.407a.703.703 0 100 1.406h6.376v1.735h-26.15v-1.735h16.493a.703.703 0 100-1.406H11.933l1.812-1.79zm21.258 12.836v4.196h-2.765v-5.602c.629.828 1.649 1.4 2.765 1.406zm-3.44-3.458c0 1.132-.921 2.052-2.053 2.052a2.055 2.055 0 01-2.052-2.052v-3.04h4.105v3.04zm-15.83 2.087c.028.038.058.076.088.113v5.454h-2.764V25.89a3.455 3.455 0 002.675-1.369zm.702-2.087v-3.04h4.105v3.04c0 1.132-.92 2.052-2.052 2.052a2.055 2.055 0 01-2.053-2.052zm9.617 0c0 1.132-.921 2.052-2.053 2.052a2.055 2.055 0 01-2.053-2.052v-3.04h4.105v3.04zm-5.737 9.06h2.424a.703.703 0 100-1.406h-2.424v-4.72c.358-.223.673-.511.928-.847a3.455 3.455 0 005.512 0c.255.336.57.624.928.848v10.998h-7.368v-4.872zm-9.39-9.06v-3.04h4.104v3.04c0 1.132-.92 2.052-2.053 2.052a2.055 2.055 0 01-2.052-2.052zm2.132 9.06h2.998c.647 0 1.172-.525 1.172-1.171v-4.67a3.448 3.448 0 001.682.213v10.5h-5.852v-4.871zm16.032 4.873v-10.5a3.45 3.45 0 001.743-.237v4.693c0 .646.526 1.172 1.172 1.172h2.999v4.872H29.09zm5.932-11.88a2.055 2.055 0 01-2.052-2.053v-3.04h4.105v3.04c0 1.132-.92 2.052-2.053 2.052z" fill="#fff"/></g><defs><clipPath id="prefix__clip0_2284_3276"><path fill="#fff" d="M0 0h48v48H0z"/></clipPath></defs></svg>