<svg width="56" height="57" fill="none" xmlns="http://www.w3.org/2000/svg"><g clip-path="url(#prefix__clip0_3013_9310)"><path d="M47.75 23.753v-2.07a.97.97 0 00-.274-.67l-4.072-4.155a1.638 1.638 0 00-1.164-.488h-4.778v-1.503c0-.282.11-.548.31-.747l2.102-2.099a3.58 3.58 0 005.336-3.11 3.58 3.58 0 00-3.578-3.574 3.58 3.58 0 00-3.578 3.573c0 .638.17 1.237.464 1.756l-2.102 2.1a2.952 2.952 0 00-.871 2.101v1.503H29V6.726a3.192 3.192 0 002.231-3.04 3.191 3.191 0 00-3.19-3.185 3.191 3.191 0 00-3.19 3.186c0 1.423.94 2.63 2.231 3.038v9.645h-6.51v-1.503c0-.794-.31-1.54-.872-2.102l-2.101-2.099a3.547 3.547 0 00.463-1.756 3.58 3.58 0 00-3.578-3.573 3.58 3.58 0 00-3.578 3.573 3.58 3.58 0 005.336 3.111l2.101 2.099c.2.2.31.465.31.747v1.503h-4.757c-.432 0-.838.167-1.145.47l-4.215 4.162a.958.958 0 00-.286.681V31.06a4.719 4.719 0 002.91 4.35v14.63H9.847c-.88 0-1.598.715-1.598 1.596v3.268c0 .88.717 1.596 1.598 1.596l.32-1.915v-2.63h35.664v2.63H10.168l-.32 1.915h36.304a1.6 1.6 0 001.598-1.596v-3.268a1.6 1.6 0 00-1.598-1.597h-1.227V35.374a4.718 4.718 0 002.824-4.314v-7.307zm-6.118-16.5c.915 0 1.66.743 1.66 1.657a1.66 1.66 0 01-3.32 0c0-.914.745-1.658 1.66-1.658zm-13.59-4.837c.7 0 1.271.57 1.271 1.27a1.273 1.273 0 01-2.544 0c0-.7.57-1.27 1.272-1.27zM12.823 8.91a1.661 1.661 0 013.32 0 1.66 1.66 0 01-3.32 0zm1.19 9.376H42.12l3.713 4.355v2.363H10.168V22.64l3.847-4.355zM43.008 35.77v5.716h-3.77v-7.631c.857 1.128 2.248 1.907 3.77 1.915zm-4.692-4.71a2.8 2.8 0 01-2.799 2.795 2.8 2.8 0 01-2.799-2.796v-4.14h5.598v4.14zm-21.59 2.842c.04.052.08.104.122.154v7.43h-3.77V35.77a4.713 4.713 0 003.649-1.866zm.96-2.843v-4.14h5.598v4.14a2.8 2.8 0 01-2.8 2.796 2.8 2.8 0 01-2.798-2.796zm13.114 0A2.8 2.8 0 0128 33.856a2.8 2.8 0 01-2.8-2.796v-4.14h5.6v4.14zm-7.823 12.343h3.305a.958.958 0 100-1.916h-3.305v-6.429c.489-.305.918-.697 1.266-1.155a4.714 4.714 0 007.516 0c.348.458.777.85 1.266 1.155v14.981H22.976v-6.636zM10.169 31.06v-4.14h5.598v4.14a2.8 2.8 0 01-2.8 2.796 2.8 2.8 0 01-2.798-2.796zm2.908 12.343h4.09c.881 0 1.598-.716 1.598-1.597v-6.36c.697.278 1.523.39 2.293.29v14.303h-7.981v-6.636zm21.865 6.636V35.736c.8.103 1.659-.02 2.377-.323v6.394c0 .88.717 1.596 1.598 1.596h4.09v6.637h-8.065zm8.09-16.183a2.8 2.8 0 01-2.799-2.796v-4.14h5.598v4.14a2.8 2.8 0 01-2.799 2.796z" fill="#fff"/></g><defs><clipPath id="prefix__clip0_3013_9310"><path fill="#fff" transform="translate(0 .5)" d="M0 0h56v56H0z"/></clipPath></defs></svg>