<svg width="24" height="24" fill="none" xmlns="http://www.w3.org/2000/svg"><g clip-path="url(#prefix__clip0_3233_24247)"><path d="M5.256 0h13.488A5.256 5.256 0 0124 5.256v13.488A5.256 5.256 0 0118.744 24H5.256A5.256 5.256 0 010 18.744V5.256A5.256 5.256 0 015.256 0z" fill="url(#prefix__paint0_linear_3233_24247)"/><path d="M8.268 17.542l.002.001-.82 1.421a1.085 1.085 0 11-1.88-1.084l.605-1.047.058-.1c.104-.15.36-.407.87-.358 0 0 1.204.13 1.291.756 0 0 .012.205-.127.411zm11.638-3.63h-2.559c-.174-.011-.25-.074-.28-.11l-.002-.003-2.74-4.744-.003.002-.164-.236c-.27-.411-.697.642-.697.642-.51 1.173.073 2.507.276 2.91l3.804 6.59a1.085 1.085 0 101.88-1.085l-.952-1.648c-.019-.04-.05-.148.144-.148h1.293a1.085 1.085 0 100-2.17zm-4.97 1.475s.136.694-.392.694h-9.46a1.085 1.085 0 110-2.169h2.433c.392-.023.485-.25.485-.25l.002.002 3.175-5.498h-.001a.243.243 0 00.001-.223l-1.048-1.816a1.085 1.085 0 111.878-1.085l.487.843.485-.841a1.085 1.085 0 011.879 1.085l-4.417 7.65c-.02.047-.026.12.118.133h2.64v.026s1.527.024 1.735 1.449z" fill="#fff"/></g><defs><linearGradient id="prefix__paint0_linear_3233_24247" x1="24" y1=".5" x2="24" y2="24.5" gradientUnits="userSpaceOnUse"><stop stop-color="#17C9FB"/><stop offset="1" stop-color="#1A74E8"/></linearGradient><clipPath id="prefix__clip0_3233_24247"><path fill="#fff" d="M0 0h24v24H0z"/></clipPath></defs></svg>