<svg width="24" height="24" fill="none" xmlns="http://www.w3.org/2000/svg"><g clip-path="url(#prefix__clip0_3623_15748)"><path d="M12 18.677a6.677 6.677 0 100-13.354 6.677 6.677 0 000 13.354" fill="#fff"/><path d="M3.365 8.719a34.728 34.728 0 00-1.757-2.717A11.998 11.998 0 0012.001 24c1.104-1.549 1.854-2.666 2.25-3.35.759-1.316 1.74-3.198 2.945-5.649V15A6 6 0 016.804 15C5.167 11.95 4.02 9.856 3.364 8.72z" fill="#229342"/><path d="M12 24A11.998 11.998 0 0022.39 6c-2.273-.224-3.95-.336-5.033-.336-1.227 0-3.013.112-5.358.336l-.001.001a6 6 0 015.198 9L12 24z" fill="#FBC116"/><path d="M12 16.75a4.75 4.75 0 100-9.5 4.75 4.75 0 000 9.5z" fill="#1A73E8"/><path d="M12 6h10.391a11.998 11.998 0 00-20.783.002L6.804 15h.001a6 6 0 015.196-9z" fill="#E33B2E"/></g><defs><clipPath id="prefix__clip0_3623_15748"><path fill="#fff" d="M0 0h24v24H0z"/></clipPath></defs></svg>