<svg width="18" height="18" fill="none" xmlns="http://www.w3.org/2000/svg"><g clip-path="url(#prefix__clip0_3782_13266)"><path d="M17.349 6.034c-.392-.911-1.186-1.895-1.808-2.206.444.83.751 1.723.913 2.646l.001.014C15.437 4.031 13.71 3.04 12.3.883c-.073-.11-.144-.222-.213-.334a2.73 2.73 0 01-.099-.18 1.557 1.557 0 01-.14-.36.023.023 0 00-.015-.008.037.037 0 00-.017 0l-.004.003-.007.003.004-.006C9.545 1.283 8.777 3.657 8.706 4.844a4.594 4.594 0 00-2.479.924 2.665 2.665 0 00-.232-.17 3.915 3.915 0 01-.026-2.13c-.83.389-1.57.941-2.168 1.621h-.004c-.357-.438-.332-1.882-.312-2.184a1.636 1.636 0 00-.3.155c-.316.218-.61.462-.881.73-.309.302-.59.63-.842.978a7.251 7.251 0 00-1.21 2.64l-.011.058c-.033.181-.063.363-.089.545L.15 8.03a8.042 8.042 0 00-.146 1.202v.045c.006 6.71 7.518 10.899 13.521 7.538a8.906 8.906 0 002.88-2.562 8.565 8.565 0 001.487-3.502c.015-.113.027-.224.04-.338a8.7 8.7 0 00-.583-4.379zM6.965 12.858c.042.02.081.04.125.06l.006.003a4.845 4.845 0 01-.131-.063zm9.49-6.368v-.008l.003.01-.002-.002z" fill="url(#prefix__paint0_linear_3782_13266)"/><path d="M17.349 6.034c-.392-.911-1.186-1.895-1.808-2.206.444.83.751 1.723.913 2.646v.008l.001.01a7.66 7.66 0 01-.28 5.883c-1.033 2.144-3.532 4.341-7.444 4.234C4.504 16.493.78 13.46.085 9.483c-.127-.627 0-.945.064-1.454a6.289 6.289 0 00-.145 1.203v.045c.006 6.71 7.518 10.899 13.521 7.538a8.908 8.908 0 002.88-2.562 8.566 8.566 0 001.487-3.502c.015-.113.027-.224.04-.338a8.7 8.7 0 00-.583-4.379z" fill="url(#prefix__paint1_radial_3782_13266)"/><path d="M17.349 6.034c-.392-.911-1.186-1.895-1.808-2.206.444.83.751 1.723.913 2.646v.008l.001.01a7.66 7.66 0 01-.28 5.883c-1.033 2.144-3.532 4.341-7.444 4.234C4.504 16.493.78 13.46.085 9.483c-.127-.627 0-.945.064-1.454a6.289 6.289 0 00-.145 1.203v.045c.006 6.71 7.518 10.899 13.521 7.538a8.908 8.908 0 002.88-2.562 8.566 8.566 0 001.487-3.502c.015-.113.027-.224.04-.338a8.7 8.7 0 00-.583-4.379z" fill="url(#prefix__paint2_radial_3782_13266)"/><path d="M12.97 7.059l.057.04a4.768 4.768 0 00-.837-1.056c-2.8-2.71-.734-5.876-.385-6.037L11.808 0c-2.263 1.282-3.03 3.656-3.101 4.843.105-.007.209-.016.316-.016a4.664 4.664 0 012.285.6 4.473 4.473 0 011.663 1.63z" fill="url(#prefix__paint3_radial_3782_13266)"/><path d="M9.029 7.6c-.015.216-.807.964-1.084.964-2.561 0-2.977 1.5-2.977 1.5.113 1.263 1.023 2.303 2.122 2.853a5.17 5.17 0 00.417.175c.377.13.772.203 1.172.219 4.49.204 5.36-5.196 2.12-6.763a3.19 3.19 0 012.172.51 4.473 4.473 0 00-1.663-1.63 4.663 4.663 0 00-2.285-.6c-.107 0-.211.008-.316.015a4.594 4.594 0 00-2.48.925c.138.112.293.263.62.574.61.583 2.178 1.187 2.182 1.258z" fill="url(#prefix__paint4_radial_3782_13266)"/><path d="M9.029 7.6c-.015.216-.807.964-1.084.964-2.561 0-2.977 1.5-2.977 1.5.113 1.263 1.023 2.303 2.122 2.853a5.17 5.17 0 00.417.175c.377.13.772.203 1.172.219 4.49.204 5.36-5.196 2.12-6.763a3.19 3.19 0 012.172.51 4.473 4.473 0 00-1.663-1.63 4.663 4.663 0 00-2.285-.6c-.107 0-.211.008-.316.015a4.594 4.594 0 00-2.48.925c.138.112.293.263.62.574.61.583 2.178 1.187 2.182 1.258z" fill="url(#prefix__paint5_radial_3782_13266)"/><path d="M5.807 5.478c.063.039.125.079.186.12a3.915 3.915 0 01-.025-2.131c-.831.39-1.57.942-2.169 1.622.044-.002 1.351-.024 2.008.39z" fill="url(#prefix__paint6_radial_3782_13266)"/><path d="M.086 9.483c.696 3.975 4.42 7.01 8.646 7.126 3.912.107 6.412-2.09 7.444-4.234a7.66 7.66 0 00.28-5.884v-.008-.008l.002.014c.32 2.02-.742 3.976-2.4 5.298l-.006.012c-3.233 2.548-6.327 1.537-6.953 1.124a4.524 4.524 0 01-.131-.063c-1.885-.872-2.664-2.533-2.497-3.959a2.372 2.372 0 01-1.266-.343 2.264 2.264 0 01-.868-.956 3.493 3.493 0 013.312-.129 4.625 4.625 0 003.383.13c-.004-.071-1.572-.675-2.183-1.258-.327-.311-.482-.461-.619-.574a2.666 2.666 0 00-.232-.17 13.3 13.3 0 00-.186-.12c-.657-.414-1.964-.39-2.008-.39H3.8c-.357-.438-.332-1.882-.311-2.183a1.636 1.636 0 00-.301.154c-.315.218-.61.462-.88.73-.31.302-.593.628-.846.976v.001-.002A7.251 7.251 0 00.253 7.41C.25 7.427-.07 8.78.086 9.483z" fill="url(#prefix__paint7_radial_3782_13266)"/><path d="M12.19 6.043c.33.312.61.668.837 1.057.047.034.092.07.135.107 2.043 1.822.972 4.397.893 4.58 1.659-1.322 2.72-3.278 2.4-5.298C15.438 4.031 13.71 3.04 12.3.883c-.073-.11-.144-.222-.213-.334a2.73 2.73 0 01-.099-.18 1.557 1.557 0 01-.14-.36.024.024 0 00-.015-.008.037.037 0 00-.017 0l-.004.003-.007.003c-.348.16-2.414 3.326.386 6.036z" fill="url(#prefix__paint8_radial_3782_13266)"/><path d="M13.16 7.205a1.887 1.887 0 00-.134-.107l-.056-.04a3.19 3.19 0 00-2.173-.51c3.24 1.568 2.371 6.967-2.12 6.763-.4-.016-.794-.09-1.172-.219a4.786 4.786 0 01-.264-.105c-.051-.022-.102-.045-.152-.07l.006.004c.626.414 3.72 1.424 6.953-1.125l.005-.011c.081-.182 1.151-2.758-.892-4.58z" fill="url(#prefix__paint9_radial_3782_13266)"/><path d="M4.968 10.064s.416-1.5 2.977-1.5c.277 0 1.07-.747 1.084-.964a4.625 4.625 0 01-3.383-.129 3.493 3.493 0 00-3.312.13c.188.392.49.724.868.955.379.23.819.35 1.266.343-.167 1.425.612 3.087 2.497 3.959.042.02.081.04.125.06-1.1-.55-2.009-1.59-2.122-2.854z" fill="url(#prefix__paint10_radial_3782_13266)"/><path d="M17.349 6.034c-.392-.911-1.186-1.895-1.808-2.206.444.83.751 1.723.913 2.646l.001.014C15.437 4.031 13.71 3.04 12.3.883c-.073-.11-.144-.222-.213-.334a2.73 2.73 0 01-.099-.18 1.557 1.557 0 01-.14-.36.023.023 0 00-.015-.008.037.037 0 00-.017 0l-.004.003-.007.003.004-.006C9.545 1.283 8.777 3.657 8.706 4.844c.106-.007.21-.016.317-.016a4.663 4.663 0 012.284.6 4.474 4.474 0 011.663 1.63 3.19 3.19 0 00-2.172-.51c3.24 1.568 2.371 6.967-2.12 6.763-.4-.016-.794-.09-1.172-.219a4.785 4.785 0 01-.264-.104c-.051-.023-.102-.045-.152-.07l.006.003a4.845 4.845 0 01-.131-.063c.042.02.081.04.125.06-1.1-.55-2.009-1.59-2.122-2.853 0 0 .416-1.5 2.977-1.5.277 0 1.07-.748 1.084-.965-.004-.07-1.572-.675-2.183-1.257-.326-.312-.482-.462-.619-.575a2.665 2.665 0 00-.232-.17 3.915 3.915 0 01-.026-2.13c-.83.389-1.57.941-2.168 1.621h-.004c-.357-.438-.332-1.882-.312-2.184a1.636 1.636 0 00-.3.155c-.316.218-.61.462-.881.73-.309.302-.59.63-.842.978a7.251 7.251 0 00-1.21 2.64l-.011.058c-.017.077-.093.467-.104.55 0-.006 0 .007 0 0a9.82 9.82 0 00-.133 1.216v.045c.006 6.71 7.518 10.899 13.521 7.538a8.906 8.906 0 002.88-2.562 8.565 8.565 0 001.487-3.502c.015-.113.027-.224.04-.338a8.7 8.7 0 00-.583-4.379z" fill="url(#prefix__paint11_linear_3782_13266)"/></g><defs><radialGradient id="prefix__paint1_radial_3782_13266" cx="0" cy="0" r="1" gradientUnits="userSpaceOnUse" gradientTransform="matrix(18.7814 0 0 18.1738 15.465 1.996)"><stop offset=".129" stop-color="#FFBD4F"/><stop offset=".186" stop-color="#FFAC31"/><stop offset=".247" stop-color="#FF9D17"/><stop offset=".283" stop-color="#FF980E"/><stop offset=".403" stop-color="#FF563B"/><stop offset=".467" stop-color="#FF3750"/><stop offset=".71" stop-color="#F5156C"/><stop offset=".782" stop-color="#EB0878"/><stop offset=".86" stop-color="#E50080"/></radialGradient><radialGradient id="prefix__paint2_radial_3782_13266" cx="0" cy="0" r="1" gradientUnits="userSpaceOnUse" gradientTransform="matrix(18.7814 0 0 18.1738 8.602 9.426)"><stop offset=".3" stop-color="#960E18"/><stop offset=".351" stop-color="#B11927" stop-opacity=".74"/><stop offset=".435" stop-color="#DB293D" stop-opacity=".343"/><stop offset=".497" stop-color="#F5334B" stop-opacity=".094"/><stop offset=".53" stop-color="#FF3750" stop-opacity="0"/></radialGradient><radialGradient id="prefix__paint3_radial_3782_13266" cx="0" cy="0" r="1" gradientUnits="userSpaceOnUse" gradientTransform="matrix(13.6063 0 0 13.1661 10.867 -2.128)"><stop offset=".132" stop-color="#FFF44F"/><stop offset=".252" stop-color="#FFDC3E"/><stop offset=".506" stop-color="#FF9D12"/><stop offset=".526" stop-color="#FF980E"/></radialGradient><radialGradient id="prefix__paint4_radial_3782_13266" cx="0" cy="0" r="1" gradientUnits="userSpaceOnUse" gradientTransform="matrix(8.94263 0 0 8.65334 6.525 14.173)"><stop offset=".353" stop-color="#3A8EE6"/><stop offset=".472" stop-color="#5C79F0"/><stop offset=".669" stop-color="#9059FF"/><stop offset="1" stop-color="#C139E6"/></radialGradient><radialGradient id="prefix__paint5_radial_3782_13266" cx="0" cy="0" r="1" gradientUnits="userSpaceOnUse" gradientTransform="rotate(-13.167 39.198 -37.758) scale(4.73298 5.3808)"><stop offset=".206" stop-color="#9059FF" stop-opacity="0"/><stop offset=".278" stop-color="#8C4FF3" stop-opacity=".064"/><stop offset=".747" stop-color="#7716A8" stop-opacity=".45"/><stop offset=".975" stop-color="#6E008B" stop-opacity=".6"/></radialGradient><radialGradient id="prefix__paint6_radial_3782_13266" cx="0" cy="0" r="1" gradientUnits="userSpaceOnUse" gradientTransform="matrix(6.43332 0 0 6.2252 8.365 1.252)"><stop stop-color="#FFE226"/><stop offset=".121" stop-color="#FFDB27"/><stop offset=".295" stop-color="#FFC82A"/><stop offset=".502" stop-color="#FFA930"/><stop offset=".732" stop-color="#FF7E37"/><stop offset=".792" stop-color="#FF7139"/></radialGradient><radialGradient id="prefix__paint7_radial_3782_13266" cx="0" cy="0" r="1" gradientUnits="userSpaceOnUse" gradientTransform="matrix(27.4481 0 0 26.5601 13.422 -2.696)"><stop offset=".113" stop-color="#FFF44F"/><stop offset=".456" stop-color="#FF980E"/><stop offset=".622" stop-color="#FF5634"/><stop offset=".716" stop-color="#FF3647"/><stop offset=".904" stop-color="#E31587"/></radialGradient><radialGradient id="prefix__paint8_radial_3782_13266" cx="0" cy="0" r="1" gradientUnits="userSpaceOnUse" gradientTransform="rotate(83.776 6.236 5.586) scale(19.4739 13.1979)"><stop stop-color="#FFF44F"/><stop offset=".06" stop-color="#FFE847"/><stop offset=".168" stop-color="#FFC830"/><stop offset=".304" stop-color="#FF980E"/><stop offset=".356" stop-color="#FF8B16"/><stop offset=".455" stop-color="#FF672A"/><stop offset=".57" stop-color="#FF3647"/><stop offset=".737" stop-color="#E31587"/></radialGradient><radialGradient id="prefix__paint9_radial_3782_13266" cx="0" cy="0" r="1" gradientUnits="userSpaceOnUse" gradientTransform="matrix(17.1363 0 0 16.5819 8.214 3.558)"><stop offset=".137" stop-color="#FFF44F"/><stop offset=".48" stop-color="#FF980E"/><stop offset=".592" stop-color="#FF5634"/><stop offset=".655" stop-color="#FF3647"/><stop offset=".904" stop-color="#E31587"/></radialGradient><radialGradient id="prefix__paint10_radial_3782_13266" cx="0" cy="0" r="1" gradientUnits="userSpaceOnUse" gradientTransform="matrix(18.7556 0 0 18.1488 12.737 4.53)"><stop offset=".094" stop-color="#FFF44F"/><stop offset=".231" stop-color="#FFE141"/><stop offset=".509" stop-color="#FFAF1E"/><stop offset=".626" stop-color="#FF980E"/></radialGradient><linearGradient id="prefix__paint0_linear_3782_13266" x1="16.156" y1="2.787" x2="1.675" y2="17.225" gradientUnits="userSpaceOnUse"><stop offset=".048" stop-color="#FFF44F"/><stop offset=".111" stop-color="#FFE847"/><stop offset=".225" stop-color="#FFC830"/><stop offset=".368" stop-color="#FF980E"/><stop offset=".401" stop-color="#FF8B16"/><stop offset=".462" stop-color="#FF672A"/><stop offset=".534" stop-color="#FF3647"/><stop offset=".705" stop-color="#E31587"/></linearGradient><linearGradient id="prefix__paint11_linear_3782_13266" x1="15.976" y1="2.712" x2="3.669" y2="15.431" gradientUnits="userSpaceOnUse"><stop offset=".167" stop-color="#FFF44F" stop-opacity=".8"/><stop offset=".266" stop-color="#FFF44F" stop-opacity=".634"/><stop offset=".489" stop-color="#FFF44F" stop-opacity=".217"/><stop offset=".6" stop-color="#FFF44F" stop-opacity="0"/></linearGradient><clipPath id="prefix__clip0_3782_13266"><path fill="#fff" d="M0 0h18v18H0z"/></clipPath></defs></svg>