<svg width="24" height="24" fill="none" xmlns="http://www.w3.org/2000/svg"><g clip-path="url(#prefix__clip0_3589_8240)"><path d="M11.14 11.442L1.09 21.97a2.725 2.725 0 003.991 1.617l11.307-6.44-5.25-5.705z" fill="#EA4335"/><path d="M21.301 9.652l-4.89-2.8-5.503 4.83 5.526 5.45 4.852-2.77a2.659 2.659 0 000-4.71h.015z" fill="#FBBC04"/><path d="M1.091 1.992c-.06.224-.09.456-.09.689v18.6c0 .232.03.464.09.689L11.484 11.71 1.091 1.991z" fill="#4285F4"/><path d="M11.215 11.98l5.197-5.128L5.12.382A2.786 2.786 0 003.72 0 2.726 2.726 0 001.09 1.984l10.124 9.997z" fill="#34A853"/></g><defs><clipPath id="prefix__clip0_3589_8240"><path fill="#fff" transform="translate(1)" d="M0 0h21.712v24H0z"/></clipPath></defs></svg>