<svg width="24" height="24" fill="none" xmlns="http://www.w3.org/2000/svg"><path d="M8.948 8.772V7.33c.141-.009.283-.018.424-.018 3.922-.124 6.492 3.401 6.492 3.401s-2.773 3.883-5.75 3.883c-.397 0-.786-.063-1.157-.187v-4.381c1.528.187 1.837.864 2.747 2.404l2.04-1.728s-1.492-1.967-4-1.967a5.955 5.955 0 00-.796.035zm0-4.772v2.155l.424-.027c5.45-.187 9.01 4.505 9.01 4.505s-4.081 5.004-8.33 5.004c-.37 0-.733-.035-1.095-.098v1.336c.3.035.61.062.91.062 3.957 0 6.819-2.039 9.593-4.443.459.374 2.34 1.273 2.73 1.665-2.633 2.226-8.772 4.016-12.253 4.016a8.57 8.57 0 01-.971-.054V20H24V4H8.948zm0 10.409v1.14c-3.657-.66-4.673-4.497-4.673-4.497s1.758-1.96 4.673-2.28v1.247H8.94c-1.528-.187-2.73 1.255-2.73 1.255s.681 2.431 2.74 3.135zM2.456 10.89s2.164-3.223 6.5-3.561V6.155C4.153 6.546 0 10.642 0 10.642s2.35 6.856 8.948 7.48v-1.247c-4.84-.605-6.492-5.983-6.492-5.983z" fill="#76B900"/></svg>