<svg width="18" height="18" fill="none" xmlns="http://www.w3.org/2000/svg"><g clip-path="url(#prefix__clip0_3782_13287)"><g clip-path="url(#prefix__clip1_3782_13287)"><path d="M6.04 14.07c-.998-1.175-1.638-2.911-1.68-4.86v-.42c.042-1.949.689-3.685 1.68-4.86 1.294-1.673 3.192-2.425 5.337-2.425 1.322 0 2.566.091 3.62.794A8.905 8.905 0 009.036 0H9a9 9 0 00-9 9 9.004 9.004 0 008.571 8.993c.141.007.289.007.43.007a8.941 8.941 0 005.997-2.292c-1.055.703-2.229.731-3.55.731-2.138.007-4.121-.689-5.408-2.37z" fill="url(#prefix__paint0_linear_3782_13287)"/><path d="M6.04 3.93c.823-.978 1.891-1.561 3.059-1.561 2.622 0 4.746 2.967 4.746 6.637 0 3.67-2.124 6.638-4.746 6.638-1.168 0-2.23-.59-3.059-1.561 1.294 1.673 3.213 2.742 5.35 2.742 1.316 0 2.553-.4 3.608-1.104A9.026 9.026 0 0018 9a8.972 8.972 0 00-3.002-6.708 6.46 6.46 0 00-3.607-1.103c-2.145 0-4.064 1.061-5.351 2.742z" fill="url(#prefix__paint1_linear_3782_13287)"/></g></g><defs><linearGradient id="prefix__paint0_linear_3782_13287" x1="749.928" y1="29.34" x2="749.928" y2="1773.81" gradientUnits="userSpaceOnUse"><stop offset=".3" stop-color="#FF1B2D"/><stop offset=".438" stop-color="#FA1A2C"/><stop offset=".594" stop-color="#ED1528"/><stop offset=".758" stop-color="#D60E21"/><stop offset=".927" stop-color="#B70519"/><stop offset="1" stop-color="#A70014"/></linearGradient><linearGradient id="prefix__paint1_linear_3782_13287" x1="603.928" y1="14.526" x2="603.928" y2="1557.42" gradientUnits="userSpaceOnUse"><stop stop-color="#9C0000"/><stop offset=".7" stop-color="#FF4B4B"/></linearGradient><clipPath id="prefix__clip0_3782_13287"><path fill="#fff" d="M0 0h18v18H0z"/></clipPath><clipPath id="prefix__clip1_3782_13287"><path fill="#fff" d="M0 0h18v18H0z"/></clipPath></defs></svg>