<svg width="24" height="24" fill="none" xmlns="http://www.w3.org/2000/svg"><g clip-path="url(#prefix__clip0_3233_21906)"><path d="M7.625 0a.689.689 0 00-.406.166c-.37-.14-.727-.189-1.047.096C5.68.2 5.518.33 5.397.482c-.108-.003-.811-.11-1.133.363-.81-.094-1.066.469-.776.995-.165.252-.337.5.05.981-.136.268-.052.558.27.91-.084.376.083.642.382.849-.056.515.48.814.64.92.061.3.19.584.801.74.1.448.469.525.824.619-1.176.674-2.185 1.56-2.178 3.735l-.173.303c-1.349.808-2.563 3.405-.665 5.516.124.661.332 1.136.517 1.661.277 2.117 2.084 3.108 2.561 3.226.699.523 1.443 1.02 2.45 1.369.948.964 1.976 1.331 3.01 1.331h.046c1.033 0 2.062-.367 3.01-1.331 1.007-.348 1.75-.846 2.45-1.37.476-.117 2.283-1.108 2.56-3.225.185-.525.393-1 .517-1.66 1.898-2.112.684-4.71-.665-5.518l-.172-.303c.007-2.174-1.002-3.06-2.179-3.735.356-.093.724-.17.825-.618.611-.156.74-.44.8-.74.16-.106.696-.406.64-.92.3-.208.467-.473.382-.85.322-.35.407-.641.27-.909.387-.48.215-.73.05-.982.29-.525.034-1.088-.776-.994-.322-.473-1.024-.366-1.133-.364C18.481.33 18.32.2 17.827.262c-.32-.285-.677-.236-1.046-.096-.438-.34-.728-.068-1.059.036-.53-.171-.65.063-.911.158-.578-.12-.754.141-1.031.418l-.323-.006c-.871.506-1.305 1.536-1.458 2.066-.154-.53-.585-1.56-1.457-2.066l-.323.006C9.942.5 9.766.239 9.188.36c-.26-.095-.381-.33-.912-.158C8.06.134 7.86-.007 7.624 0z" fill="#050606"/><path d="M5.906 2.227c2.314 1.175 3.658 2.125 4.395 2.934-.377 1.49-2.345 1.558-3.065 1.516.147-.068.27-.149.314-.273-.18-.126-.821-.013-1.268-.26.172-.036.252-.07.332-.195-.422-.132-.877-.247-1.145-.467.145.002.28.032.468-.097-.378-.2-.782-.36-1.095-.666.195-.005.406-.002.467-.073a4.195 4.195 0 01-.88-.703c.274.032.39.004.456-.043-.262-.264-.593-.487-.751-.812.203.07.39.096.523-.006-.09-.198-.47-.315-.69-.776.214.02.442.046.487 0-.1-.399-.27-.623-.437-.855.458-.007 1.152.002 1.12-.036l-.283-.285c.447-.119.905.019 1.237.121.15-.116-.002-.262-.184-.412.38.05.723.136 1.034.254C7.106.946 6.833.8 6.7.651c.587.11.836.264 1.083.418.18-.17.01-.313-.11-.46.442.161.67.37.91.575.082-.108.207-.187.055-.448.315.178.552.389.726.624.195-.122.117-.289.118-.442.326.262.534.54.787.812.052-.037.096-.161.136-.358.78.745 1.88 2.621.283 3.365-1.36-1.104-2.984-1.907-4.783-2.51zm12.252 0c-2.313 1.175-3.658 2.125-4.394 2.934.377 1.49 2.346 1.558 3.065 1.516-.148-.068-.27-.149-.314-.273.18-.126.82-.013 1.268-.26-.172-.036-.252-.07-.332-.195.422-.132.877-.247 1.144-.467-.144.002-.279.032-.467-.097.378-.2.781-.36 1.095-.666-.195-.005-.406-.002-.467-.073a4.2 4.2 0 00.88-.703c-.274.032-.39.004-.456-.043.262-.264.593-.487.751-.812-.203.07-.39.096-.523-.006.089-.198.47-.315.69-.776-.215.02-.442.046-.487 0 .1-.399.27-.623.437-.855-.458-.007-1.152.002-1.12-.036l.283-.285c-.447-.119-.905.019-1.237.12-.15-.115.002-.262.184-.411-.38.05-.723.136-1.034.254-.165-.147.108-.295.24-.442-.587.11-.835.264-1.083.418-.18-.17-.01-.313.11-.46-.442.16-.67.37-.91.575-.081-.108-.207-.187-.056-.448a2.296 2.296 0 00-.726.624c-.194-.122-.116-.289-.117-.443-.326.262-.534.541-.787.813-.052-.037-.096-.161-.136-.358-.78.745-1.88 2.621-.283 3.365 1.36-1.105 2.983-1.908 4.783-2.51" fill="#63C54D"/><path d="M14.83 17.394c.008 1.39-1.226 2.523-2.757 2.53-1.53.007-2.777-1.114-2.785-2.503v-.027c-.008-1.39 1.226-2.523 2.756-2.53 1.53-.007 2.778 1.113 2.786 2.503v.027m-4.32-7.19c1.148.741 1.354 2.421.462 3.752-.893 1.33-2.548 1.809-3.696 1.068-1.148-.741-1.355-2.42-.462-3.751s2.547-1.81 3.695-1.068zm3.098-.134c-1.148.742-1.355 2.42-.462 3.752.893 1.33 2.547 1.809 3.695 1.067 1.148-.74 1.355-2.42.462-3.75-.892-1.331-2.546-1.81-3.695-1.069zm-8.766 1.354c1.24-.327.419 5.05-.59 4.61-1.11-.88-1.466-3.453.59-4.61zm14.325-.067c-1.24-.327-.419 5.051.59 4.61 1.11-.88 1.467-3.453-.59-4.61zM15.01 7.344c2.139-.356 3.918.896 3.847 3.18-.07.876-4.635-3.05-3.847-3.18zM9.1 7.277c-2.14-.356-3.92.896-3.848 3.18.07.877 4.635-3.05 3.847-3.18zm2.946-.533c-1.276-.033-2.502.934-2.505 1.493-.003.681 1.01 1.379 2.514 1.396 1.536.01 2.516-.558 2.521-1.26.006-.796-1.397-1.641-2.53-1.63zm.099 13.962c1.113-.049 2.607.352 2.61.884.018.517-1.355 1.684-2.684 1.662-1.376.058-2.726-1.11-2.708-1.516-.02-.594 1.676-1.058 2.782-1.03zm-4.12-3.153c.793.94 1.154 2.592.493 3.08-.626.371-2.145.218-3.226-1.31-.728-1.282-.634-2.587-.122-2.97.764-.46 1.946.16 2.855 1.2m7.98-.299c-.858.99-1.336 2.794-.71 3.375.598.452 2.204.389 3.39-1.232.86-1.089.572-2.907.08-3.39-.73-.556-1.78.156-2.76 1.247" fill="#C51850"/></g><defs><clipPath id="prefix__clip0_3233_21906"><path fill="#fff" d="M0 0h24v24H0z"/></clipPath></defs></svg>