<svg width="28" height="28" fill="none" xmlns="http://www.w3.org/2000/svg"><path fill-rule="evenodd" clip-rule="evenodd" d="M12 5h4V4a4 4 0 014-4h4a4 4 0 014 4v4a4 4 0 01-4 4h-1v4h1a4 4 0 014 4v4a4 4 0 01-4 4h-4a4 4 0 01-4-4v-1h-4v1a4 4 0 01-4 4H4a4 4 0 01-4-4v-4a4 4 0 014-4h1v-4H4a4 4 0 01-4-4V4a4 4 0 014-4h4a4 4 0 014 4v1zM4 2h4a2 2 0 012 2v4a2 2 0 01-2 2H7V8a1 1 0 00-2 0v2H4a2 2 0 01-2-2V4a2 2 0 012-2zm4 10H7v4h1a4 4 0 014 4v1h4v-1a4 4 0 014-4h1v-4h-1a4 4 0 01-4-4V7h-4v1a4 4 0 01-4 4zm10-5h3a1 1 0 100-2h-3V4a2 2 0 012-2h4a2 2 0 012 2v4a2 2 0 01-2 2h-4a2 2 0 01-2-2V7zm-8 13v1H7a1 1 0 100 2h3v1a2 2 0 01-2 2H4a2 2 0 01-2-2v-4a2 2 0 012-2h4a2 2 0 012 2zm11-2h-1a2 2 0 00-2 2v4a2 2 0 002 2h4a2 2 0 002-2v-4a2 2 0 00-2-2h-1v3a1 1 0 11-2 0v-3z" fill="#fff"/></svg>