<svg width="28" height="28" fill="none" xmlns="http://www.w3.org/2000/svg"><path fill-rule="evenodd" clip-rule="evenodd" d="M24 6a2 2 0 100-4 2 2 0 000 4zm0 2a4 4 0 10-3.26-1.682l-3.35 3.35A5.476 5.476 0 0014 8.5c-.896 0-1.743.215-2.49.595L9.12 6.707a1 1 0 10-1.414 1.414l2.202 2.202A5.482 5.482 0 008.591 13H5.829a3.001 3.001 0 100 2h2.762a5.509 5.509 0 003.424 4.13l-.772 2.88a3 3 0 101.936.504l.808-3.014H14c1.05 0 2.032-.294 2.866-.805l3.543 3.542a4 4 0 101.307-1.521l-3.359-3.359A5.476 5.476 0 0019.5 14a5.475 5.475 0 00-.784-2.83l3.56-3.56c.522.25 1.107.39 1.724.39zm0 18a2 2 0 100-4 2 2 0 000 4zm-6.5-12a3.5 3.5 0 11-7 0 3.5 3.5 0 017 0zM3 15.5a1.5 1.5 0 100-3 1.5 1.5 0 000 3zM4.5 3a1.5 1.5 0 11-3 0 1.5 1.5 0 013 0zM6 3a3 3 0 11-6 0 3 3 0 016 0zm5.5 23.5a1.5 1.5 0 100-3 1.5 1.5 0 000 3z" fill="#fff"/></svg>