<svg width="29" height="28" fill="none" xmlns="http://www.w3.org/2000/svg"><path fill-rule="evenodd" clip-rule="evenodd" d="M8.5 2h12v8h-12V2zm-2 0a2 2 0 012-2h12a2 2 0 012 2v8a2 2 0 01-2 2h-12a2 2 0 01-2-2V2zm-1 22.5a1.5 1.5 0 11-3 0 1.5 1.5 0 013 0zM3 21.145A3.502 3.502 0 004 28a3.5 3.5 0 001-6.855V20.5a1 1 0 011-1h4a1 1 0 100-2H6a3 3 0 00-3 3v.645zM14.5 26a1.5 1.5 0 100-3 1.5 1.5 0 000 3zm-1-4.855a3.502 3.502 0 001 6.855 3.5 3.5 0 001-6.855V18.5a1 1 0 10-2 0v2.645zm13 3.355a1.5 1.5 0 11-3 0 1.5 1.5 0 013 0zm-5 0a3.502 3.502 0 012.5-3.355V20.5a1 1 0 00-1-1h-4a1 1 0 110-2h4a3 3 0 013 3v.645A3.502 3.502 0 0125 28a3.5 3.5 0 01-3.5-3.5zm-11-9.75a.75.75 0 01.75-.75h6.5a.75.75 0 010 1.5h-6.5a.75.75 0 01-.75-.75z" fill="#fff"/></svg>