<svg width="29" height="28" fill="none" xmlns="http://www.w3.org/2000/svg"><path fill-rule="evenodd" clip-rule="evenodd" d="M7.524 0a.998.998 0 00-.996 1v5c0 .552.446 1 .996 1s.997-.448.997-1V1c0-.552-.446-1-.997-1zm0 9a.998.998 0 00-.996 1v1.5H5.53a2.995 2.995 0 00-2.99 3v1.36c0 1.022.52 1.974 1.377 2.525l6.397 4.115V28h3.809c.89 0 1.753-.299 2.454-.848l.575-.45a4.005 4.005 0 001.532-3.153V22.5l6.397-4.115a3.003 3.003 0 001.376-2.525V14.5c0-1.657-1.338-3-2.99-3h-1.13a.998.998 0 00-.863-1.5.998.998 0 00-.863 1.5H17.49V8c0-.552-.447-1-.997-1a.998.998 0 00-.996 1v3.5h-1.993V6c0-.552-.447-1-.997-1a.998.998 0 00-.997 1v5.5H8.52V10c0-.552-.445-1-.996-1zM20.48 1c0-.552.446-1 .997-1 .55 0 .996.448.996 1v2c0 .552-.446 1-.996 1a.998.998 0 01-.997-1V1zm-3.986-1a.998.998 0 00-.996 1v2c0 .552.446 1 .996 1s.997-.448.997-1V1c0-.552-.447-1-.997-1zm-2.99 1c0 .552-.446 1-.996 1a.998.998 0 01-.997-1c0-.552.447-1 .997-1s.997.448.997 1zm7.973 7c.55 0 .996-.448.996-1s-.446-1-.996-1a.998.998 0 00-.997 1c0 .552.446 1 .997 1zm-9.168 14.5c0-.681-.346-1.316-.918-1.684l-6.397-4.114a1 1 0 01-.458-.842V14.5c0-.552.446-1 .996-1H23.47c.55 0 .996.448.996 1v1.36a1 1 0 01-.459.841l-6.396 4.115a2.002 2.002 0 00-.918 1.684v1.049c0 .616-.282 1.197-.766 1.576l-.575.451c-.35.275-.782.424-1.227.424h-1.816v-3.5z" fill="#fff"/></svg>