<svg width="29" height="28" fill="none" xmlns="http://www.w3.org/2000/svg"><path fill-rule="evenodd" clip-rule="evenodd" d="M24.5 2h-20a2 2 0 00-2 2v20a2 2 0 002 2h20a2 2 0 002-2V4a2 2 0 00-2-2zm-20-2a4 4 0 00-4 4v20a4 4 0 004 4h20a4 4 0 004-4V4a4 4 0 00-4-4h-20zm9 6.5a1 1 0 112 0V13H22a1 1 0 110 2h-6.5v6.5a1 1 0 11-2 0V15H7a1 1 0 110-2h6.5V6.5zM8 8.5a1 1 0 100-2 1 1 0 000 2zM8 10a2.5 2.5 0 100-5 2.5 2.5 0 000 5zm1 10.5a1 1 0 11-2 0 1 1 0 012 0zm1.5 0a2.5 2.5 0 11-5 0 2.5 2.5 0 015 0zM21 8.5a1 1 0 100-2 1 1 0 000 2zm0 1.5a2.5 2.5 0 100-5 2.5 2.5 0 000 5zm1 10.5a1 1 0 11-2 0 1 1 0 012 0zm1.5 0a2.5 2.5 0 11-5 0 2.5 2.5 0 015 0z" fill="#fff"/></svg>