<svg width="29" height="28" fill="none" xmlns="http://www.w3.org/2000/svg"><path fill-rule="evenodd" clip-rule="evenodd" d="M7.5 1a1 1 0 012 0v1h4V1a1 1 0 112 0v1h4V1a1 1 0 112 0v1h1a4 4 0 014 4v1h1a1 1 0 110 2h-1v4h1a1 1 0 110 2h-1v4h1a1 1 0 110 2h-1v1a4 4 0 01-4 4h-1v1a1 1 0 01-2 0v-1h-4v1a1 1 0 01-2 0v-1h-4v1a1 1 0 01-2 0v-1h-1a4 4 0 01-4-4v-1h-1a1 1 0 110-2h1v-4h-1a1 1 0 110-2h1V9h-1a1 1 0 010-2h1V6a4 4 0 014-4h1V1zm-1 3h16a2 2 0 012 2v16a2 2 0 01-2 2h-16a2 2 0 01-2-2V6a2 2 0 012-2zm4 3h8.25c1.654 0 2.75 1.096 2.75 2.75v8.5c0 1.654-1.096 2.75-2.75 2.75h-8.5c-1.654 0-2.75-1.096-2.75-2.75V10c0-1.654 1.346-3 3-3zm4.875 12.25h3.375c.551 0 1-.449 1-1V17h-1a1 1 0 110-2h1V9.75c0-.551-.449-1-1-1H15.5V11h1a1 1 0 110 2h-2a1 1 0 01-1-1V8.75h-3.25c-.551 0-1 .449-1 1V11h1a1 1 0 110 2h-1v5.25c0 .551.449 1 1 1h3.375V17h-1a1 1 0 110-2h1.75a1 1 0 011 1v3.25z" fill="#fff"/></svg>